<svg width="263" height="126" viewBox="0 0 263 126" fill="none" xmlns="http://www.w3.org/2000/svg">
<path d="M135.59 35.1682C135.746 34.8711 136.01 34.7374 136.383 34.7671C136.787 34.7968 137.191 34.9157 137.596 35.1237C138.031 35.3317 138.389 35.5842 138.669 35.8814C138.948 36.1488 139.042 36.3717 138.948 36.55C138.855 36.7877 138.746 37.0254 138.622 37.2631C137.876 38.8974 136.865 40.9774 135.59 43.5032C134.346 45.9992 132.931 48.4655 131.346 50.9021C129.76 53.309 128.127 55.2256 126.448 56.6519C124.769 58.0485 123.152 58.4645 121.597 57.8999C119.669 57.157 118.208 56.1764 117.213 54.9581C116.218 53.7398 115.829 52.0313 116.047 49.8324C116.016 49.8621 116 49.8918 116 49.9215C114.974 51.437 113.932 52.893 112.875 54.2896C111.849 55.6564 110.465 57.2313 108.724 59.0142C107.729 59.9056 106.392 60.3216 104.713 60.2622C103.034 60.2028 101.494 59.7868 100.095 59.0142C98.6647 58.2416 97.8562 57.2164 97.6697 55.9387C97.5764 53.7101 98.105 50.6347 99.2555 46.7123C100.375 42.79 101.681 39.1054 103.174 35.6585C104.635 32.1819 105.801 30.0276 106.672 29.1956C107.325 28.7499 108.211 28.6607 109.33 28.9282C110.481 29.1956 111.476 29.6413 112.315 30.2653C113.155 30.8596 113.435 31.4539 113.155 32.0482C112.44 33.2665 111.476 35.3019 110.263 38.1545C109.082 41.0071 107.978 43.9043 106.952 46.8461C105.957 49.7878 105.397 51.9867 105.272 53.4427C105.957 53.205 107.262 51.6747 109.19 48.8518C111.118 46.0289 113.264 42.5523 115.627 38.422C118.021 34.2916 120.229 30.1762 122.25 26.0756C122.841 25.095 123.79 24.7384 125.096 25.0058C126.433 25.2436 127.614 25.7784 128.64 26.6104C129.666 27.4424 130.04 28.2447 129.76 29.0173C128.827 30.9488 127.785 33.5042 126.635 36.6837C125.515 39.8631 124.582 42.998 123.836 46.0883C123.121 49.1489 122.872 51.4815 123.09 53.0861C125.484 51.3924 127.832 48.6586 130.133 44.8849C132.465 41.1111 134.284 37.8723 135.59 35.1682Z" fill="black"/>
<path d="M161.244 32.8059C162.145 32.7465 163.109 32.9693 164.135 33.4745C165.161 33.9499 165.939 34.4105 166.467 34.8562C166.312 35.0345 166.188 35.1534 166.094 35.2128C166.001 35.2722 165.908 35.3019 165.814 35.3019C165.752 35.2722 165.675 35.2425 165.581 35.2128C165.488 35.1534 165.333 35.1088 165.115 35.0791C164.928 35.0494 164.648 35.0642 164.275 35.1237C162.969 35.4505 161.057 36.342 158.538 37.798C156.02 39.2243 153.579 40.7397 151.215 42.3443C148.852 43.9489 147.266 45.1375 146.458 45.91C146.644 46.2072 146.831 46.4895 147.018 46.7569C147.453 47.3512 147.873 47.9604 148.277 48.5844C149.458 50.6644 149.769 52.7444 149.21 54.8244C148.65 56.9044 147.5 58.8507 145.758 60.6633C144.048 62.4462 142.058 63.9468 139.788 65.1651C137.425 66.324 134.875 66.8291 132.139 66.6805C129.371 66.532 127.272 65.7148 125.842 64.2291C124.411 62.7136 124.52 60.4851 126.168 57.5433C127.568 55.3444 129.371 53.2793 131.579 51.3478C133.755 49.4164 136.01 47.6038 138.342 45.91C137.907 45.3455 137.487 44.8106 137.083 44.3055C136.119 43.1466 135.248 41.9877 134.471 40.8289C133.693 39.6403 133.118 38.3774 132.745 37.0402C132.061 33.9796 132.418 31.023 133.818 28.1704C135.217 25.2881 137.269 22.9555 139.975 21.1727C140.876 20.6378 141.949 20.4744 143.193 20.6824C144.437 20.8607 145.618 21.2172 146.738 21.7521C147.888 22.287 148.759 22.7772 149.35 23.223C150.936 20.8161 152.319 18.9738 153.501 17.696C154.682 16.4183 155.662 15.4972 156.439 14.9326C156.875 14.6949 157.434 14.784 158.118 15.2C158.803 15.616 159.471 16.2103 160.124 16.9829C160.808 17.7258 161.29 18.4538 161.57 19.1669C161.881 19.8801 161.85 20.3852 161.477 20.6824C160.109 21.6332 158.523 23.1041 156.719 25.095C154.947 27.0859 153.47 29.1362 152.288 31.2459C151.138 33.3556 150.811 35.0642 151.309 36.3717C150.562 36.5202 149.614 36.2231 148.463 35.4802C147.344 34.7374 146.582 33.7122 146.178 32.4048C145.991 31.3945 146.116 30.2505 146.551 28.9727C147.018 27.695 147.437 26.7441 147.81 26.1201C146.256 26.1498 144.888 27.1601 143.706 29.151C142.555 31.1122 141.902 33.3853 141.747 35.9705C141.623 38.526 142.291 40.71 143.753 42.5226C144.748 41.8986 145.883 41.1557 147.157 40.294C149.49 38.6894 151.946 37.1294 154.527 35.6139C157.108 34.0985 159.347 33.1625 161.244 32.8059ZM131.765 61.2873C133.009 61.1388 134.408 60.4108 135.963 59.1033C137.549 57.7662 138.855 56.2656 139.881 54.6016C140.907 52.9375 141.203 51.5558 140.767 50.4564C140.581 50.6644 140.379 50.8575 140.161 51.0358C138.389 52.581 136.741 54.1856 135.217 55.8496C133.693 57.4839 132.543 59.2965 131.765 61.2873Z" fill="black"/>
<path d="M203.502 8.1131C205.709 8.7371 207.28 9.79197 208.213 11.2777C209.145 12.7634 209.55 14.2343 209.425 15.6903C209.332 17.1463 208.803 18.1418 207.839 18.6766C208.182 16.032 205.912 14.2937 201.03 13.4617C196.148 12.6297 190.255 12.7189 183.352 13.7292C178.439 20.2069 174.164 27.4127 170.525 35.3465C166.918 43.2803 164.804 50.1444 164.182 55.9387C163.56 61.7034 165.333 64.6005 169.499 64.6302C167.323 66.6211 164.617 66.9777 161.383 65.7C158.118 64.4222 156.144 61.5102 155.46 56.9639C155.304 52.9821 156.735 47.1878 159.751 39.5808C162.767 31.9442 166.452 24.367 170.805 16.8492C167.229 18.0972 164.058 19.6424 161.29 21.4847C160.73 21.7818 160.077 21.7224 159.331 21.3064C158.554 20.8607 157.839 20.2366 157.186 19.4344C156.533 18.6321 156.097 17.8743 155.88 17.1612C155.631 16.4183 155.771 15.9132 156.299 15.6457C162.176 13.0309 168.566 10.936 175.47 9.36111C177.988 5.64678 180.351 2.70504 182.559 0.535876C183.461 -0.14756 184.674 -0.177275 186.197 0.446732C187.721 1.07074 188.934 1.99189 189.835 3.21019C190.737 4.42849 190.691 5.5725 189.696 6.64222C189.478 6.85022 189.26 7.05823 189.043 7.26623C194.484 6.85022 199.304 7.13251 203.502 8.1131ZM195.246 34.8116C195.712 34.3362 196.241 34.1579 196.832 34.2768C197.454 34.3659 197.951 34.6185 198.324 35.0345C198.729 35.4208 198.837 35.8071 198.651 36.1934C197.625 37.9168 196.194 40.3386 194.36 43.4586C192.556 46.5489 190.349 49.2529 187.737 51.5707C185.156 53.8884 182.855 55.3741 180.833 56.0279C178.874 56.5033 176.807 56.2062 174.63 55.1364C172.453 54.037 171.381 52.4918 171.412 50.501C171.754 47.8564 172.889 44.246 174.817 39.67C176.776 35.0939 178.952 31.2162 181.346 28.0367C181.937 27.4721 182.963 27.3384 184.425 27.6356C185.886 27.9327 187.177 28.4824 188.296 29.2847C189.416 30.0573 189.758 30.8596 189.322 31.6916C182.077 43.3992 179.574 49.1638 181.813 48.9855C184.083 48.7775 188.561 44.0529 195.246 34.8116ZM191.841 25.407C191.25 26.0013 190.395 26.239 189.276 26.1201C188.187 25.9716 187.192 25.6298 186.291 25.095C185.389 24.5601 184.969 23.9807 185.031 23.3567C185.498 21.6035 186.135 19.9098 186.944 18.2755C187.783 16.6412 188.452 15.4675 188.949 14.7543C189.664 14.0709 190.784 13.8629 192.307 14.1303C193.831 14.3977 195.153 14.9177 196.272 15.6903C197.392 16.4332 197.702 17.2355 197.205 18.0972C196.894 18.5132 196.521 19.0332 196.086 19.6572C195.401 20.6081 194.671 21.6184 193.893 22.6881C193.116 23.7281 192.432 24.6344 191.841 25.407Z" fill="black"/>
<path d="M228.969 34.4551C229.186 34.0985 229.513 33.9351 229.948 33.9648C230.414 33.9648 230.881 34.0985 231.347 34.3659C231.845 34.6334 232.234 34.9157 232.513 35.2128C232.824 35.5099 232.949 35.7477 232.887 35.9259C231.083 39.4917 228.673 43.31 225.657 47.3809C222.672 51.4221 219.811 54.2153 217.075 55.7604C215.955 56.2359 214.649 56.3547 213.157 56.117C211.695 55.8496 210.358 55.3593 209.145 54.6461C207.933 53.933 207.202 53.1604 206.953 52.3284C206.673 50.9912 206.751 49.2232 207.186 47.0243C207.653 44.8255 208.197 42.7157 208.819 40.6951C209.441 38.6448 209.907 37.2037 210.218 36.3717C210.249 36.2825 210.28 36.2082 210.312 36.1488C207.668 38.4665 204.792 41.8689 201.683 46.3558C198.604 50.8427 196.303 54.5718 194.78 57.5433C194.313 58.2565 193.427 58.5387 192.121 58.3902C190.815 58.2416 189.602 57.8553 188.483 57.2313C187.363 56.5776 186.866 55.8793 186.99 55.1364C187.799 52.1055 189.198 47.7821 191.188 42.166C193.178 36.5202 195.588 31.127 198.418 25.9864C198.915 25.1841 199.615 24.7681 200.517 24.7384C201.449 24.7087 202.382 24.9167 203.315 25.3624C204.248 25.8081 204.994 26.343 205.554 26.967C206.114 27.5613 206.3 28.0962 206.114 28.5716C204.87 30.9488 203.611 33.2219 202.336 35.3911C200.905 37.8277 200.05 39.4471 199.77 40.2494C201.791 37.486 203.968 34.9157 206.3 32.5385C208.632 30.1316 210.871 28.2744 213.017 26.967C214.105 26.4321 215.349 26.3876 216.748 26.8333C218.147 27.2493 219.314 27.9327 220.246 28.8836C221.179 29.8047 221.475 30.7408 221.133 31.6916C220.884 32.2562 220.604 32.8951 220.293 33.6082C219.049 36.2825 217.743 39.3283 216.375 42.7454C215.038 46.1329 214.307 48.9706 214.183 51.2587C216.67 49.8918 219.251 47.6632 221.926 44.5729C224.6 41.4529 226.947 38.0803 228.969 34.4551Z" fill="black"/>
<path d="M119.096 81.1144C119.409 80.7864 119.91 80.7044 120.599 80.8684C121.288 80.9996 121.883 81.3113 122.384 81.8033C122.885 82.2953 123.011 82.8693 122.76 83.5253C121.194 86.3791 119.346 89.5772 117.216 93.1197C115.118 96.6623 112.894 99.926 110.545 102.911C108.196 105.896 105.862 108.012 103.544 109.258C101.54 110.078 99.6447 109.881 97.8594 108.668C96.1054 107.421 95.0874 105.961 94.8055 104.289C94.7429 103.206 94.8838 101.796 95.2284 100.057C95.5729 98.286 95.9644 96.6459 96.4029 95.137C95.4006 96.3835 94.2731 97.9087 93.0202 99.7128C90.7337 103.255 88.0244 106.634 84.8922 109.848C84.0465 110.537 82.8406 110.685 81.2745 110.291C79.7085 109.898 78.2833 109.176 76.9991 108.126C75.7149 107.077 75.0885 105.912 75.1198 104.633C75.6836 99.5488 77.3593 94.2842 80.147 88.8392C82.9346 83.3941 86.0198 79.1628 89.4025 76.145C91.2818 74.6362 92.9889 74.1114 94.5236 74.5706C96.0897 75.0298 97.6715 75.8662 99.2689 77.0799C99.8327 77.4735 100.428 77.8835 101.054 78.3099C101.837 77.3915 102.62 76.4403 103.403 75.4562C103.936 74.7346 104.5 74.013 105.095 73.2913C105.815 72.5697 106.817 72.4221 108.102 72.8485C109.417 73.2749 110.529 73.9966 111.437 75.0134C112.346 75.9974 112.581 76.9815 112.142 77.9655C108.039 85.477 105.439 91.2337 104.343 95.2354C103.278 99.2372 103.231 101.254 104.202 101.287C106.676 101.123 111.641 94.399 119.096 81.1144ZM96.7788 84.8538C96.9667 84.5586 97.0607 84.0994 97.0607 83.4761C97.0607 82.8529 96.9511 82.2789 96.7318 81.7541C96.5126 81.1964 96.1837 80.8684 95.7452 80.77C95.3067 80.6388 94.7429 80.934 94.0538 81.6557C91.2662 84.7718 88.9327 88.3471 87.0534 92.3817C85.1741 96.3835 84.1718 99.2372 84.0465 100.943C85.5813 99.598 87.6798 97.2035 90.3422 93.7594C93.0045 90.3152 95.1501 87.3467 96.7788 84.8538Z" fill="black"/>
<path d="M145.218 81.7049C145.406 81.4753 145.688 81.4261 146.063 81.5573C146.439 81.6557 146.831 81.8689 147.238 82.1969C147.645 82.5249 147.958 82.8693 148.178 83.2301C148.428 83.5581 148.491 83.837 148.366 84.0666C147.864 84.9194 147.301 85.9198 146.674 87.0679C145.202 89.7576 143.448 92.7261 141.412 95.9735C139.408 99.2208 137.199 102.173 134.788 104.83C132.376 107.454 129.839 109.192 127.177 110.045C125.61 110.406 123.778 110.258 121.68 109.602C119.581 108.946 117.702 107.979 116.042 106.7C114.382 105.387 113.442 103.977 113.223 102.468C112.972 98.8928 113.677 94.7434 115.337 90.02C116.997 85.2966 119.142 81.0488 121.774 77.2767C124.436 73.5045 127.114 71.2412 129.808 70.4868C130.371 70.3556 130.904 70.3884 131.405 70.5852C131.906 70.782 132.517 71.0772 133.237 71.4708C133.613 71.6677 134.052 71.8973 134.553 72.1597C134.678 71.9629 134.835 71.7169 135.023 71.4216C135.43 70.8312 135.837 70.2572 136.244 69.6996C136.651 69.1091 136.949 68.7647 137.137 68.6663C138.202 68.2727 139.361 68.4695 140.614 69.2568C141.898 70.044 142.9 71.0116 143.62 72.1597C144.372 73.2749 144.497 74.1278 143.996 74.7182C141.553 77.1127 139.596 79.786 138.123 82.7381C136.683 85.6574 136.135 87.9043 136.479 89.4788C136.072 89.938 135.367 90.0364 134.365 89.774C133.394 89.5116 132.454 88.954 131.546 88.1011C130.669 87.2155 130.183 86.1003 130.089 84.7554C130.121 83.5417 130.434 82.0821 131.029 80.3764C131.656 78.6707 132.251 77.2931 132.814 76.2434C131.468 76.9651 130.011 78.8183 128.445 81.8033C126.91 84.7882 125.626 88.0519 124.592 91.5945C123.559 95.1042 123.12 98.0563 123.277 100.451C123.465 102.813 124.608 103.764 126.707 103.305C129.181 102.517 131.671 100.566 134.177 97.4495C136.683 94.3334 139.267 90.7252 141.929 86.6251C142.994 84.985 144.09 83.3449 145.218 81.7049Z" fill="black"/>
<path d="M172.092 81.7049C172.28 81.4753 172.562 81.4261 172.938 81.5573C173.313 81.6557 173.705 81.8689 174.112 82.1969C174.519 82.5249 174.832 82.8693 175.052 83.2301C175.302 83.5581 175.365 83.837 175.24 84.0666C174.739 84.9194 174.175 85.9198 173.548 87.0679C172.076 89.7576 170.322 92.7261 168.286 95.9735C166.282 99.2208 164.073 102.173 161.662 104.83C159.25 107.454 156.713 109.192 154.051 110.045C152.484 110.406 150.652 110.258 148.554 109.602C146.455 108.946 144.576 107.979 142.916 106.7C141.256 105.387 140.316 103.977 140.097 102.468C139.846 98.8928 140.551 94.7434 142.211 90.02C143.871 85.2966 146.017 81.0488 148.648 77.2767C151.31 73.5045 153.988 71.2412 156.682 70.4868C157.245 70.3556 157.778 70.3884 158.279 70.5852C158.78 70.782 159.391 71.0772 160.111 71.4708C160.487 71.6677 160.926 71.8973 161.427 72.1597C161.552 71.9629 161.709 71.7169 161.897 71.4216C162.304 70.8312 162.711 70.2572 163.118 69.6996C163.525 69.1091 163.823 68.7647 164.011 68.6663C165.076 68.2727 166.235 68.4695 167.488 69.2568C168.772 70.044 169.774 71.0116 170.494 72.1597C171.246 73.2749 171.371 74.1278 170.87 74.7182C168.427 77.1127 166.47 79.786 164.997 82.7381C163.557 85.6574 163.009 87.9043 163.353 89.4788C162.946 89.938 162.241 90.0364 161.239 89.774C160.268 89.5116 159.328 88.954 158.42 88.1011C157.543 87.2155 157.057 86.1003 156.963 84.7554C156.995 83.5417 157.308 82.0821 157.903 80.3764C158.53 78.6707 159.125 77.2931 159.688 76.2434C158.342 76.9651 156.885 78.8183 155.319 81.8033C153.784 84.7882 152.5 88.0519 151.466 91.5945C150.433 95.1042 149.994 98.0563 150.151 100.451C150.339 102.813 151.482 103.764 153.581 103.305C156.055 102.517 158.545 100.566 161.051 97.4495C163.557 94.3334 166.141 90.7252 168.803 86.6251C169.868 84.985 170.964 83.3449 172.092 81.7049Z" fill="black"/>
<path d="M220.484 67.4855C224.148 69.4208 227.014 71.5857 229.082 73.9802C231.18 76.3418 231.854 79.9336 231.102 84.7554C230.632 87.0515 229.645 90.4464 228.142 94.9402C226.764 99.1388 225.464 103.485 224.242 107.979C223.021 112.44 222.41 116.228 222.41 119.344C222.441 122.493 223.585 124.183 225.84 124.412C225.057 125.855 223.616 126.315 221.517 125.79C219.45 125.298 217.587 123.937 215.927 121.706C214.267 119.476 213.703 116.507 214.235 112.801C215.331 107.815 217.007 102.222 219.262 96.0227C220.609 92.2177 221.643 89.036 222.363 86.4775C223.365 83.0333 223.538 80.1796 222.88 77.9163C222.222 75.6202 220.374 73.8817 217.336 72.7009C217.273 78.7691 215.425 85.9198 211.792 94.153C208.19 102.386 204.103 108.061 199.53 111.177C198.277 111.833 196.664 111.915 194.69 111.423C192.748 110.931 190.947 110.062 189.287 108.815C187.659 107.569 186.672 106.158 186.328 104.584C186.046 101.96 186.359 98.7616 187.267 94.9894C186.234 96.2687 185.075 97.8431 183.79 99.7128C181.316 103.485 178.466 107.044 175.24 110.39C174.363 111.078 173.125 111.226 171.528 110.832C169.931 110.439 168.49 109.701 167.206 108.618C165.89 107.536 165.248 106.355 165.279 105.076C165.843 99.8932 167.55 94.5302 170.4 88.9868C173.219 83.4433 176.367 79.13 179.844 76.0466C181.755 74.505 183.493 73.9802 185.059 74.4722C186.656 74.9314 188.254 75.7842 189.851 77.0307C190.446 77.4243 191.057 77.8343 191.684 78.2607C191.965 77.8343 192.294 77.3095 192.67 76.6863C193.046 76.0958 193.422 75.5218 193.798 74.9642C194.174 74.4066 194.503 73.9637 194.784 73.6357C195.567 72.9141 196.601 72.7993 197.885 73.2913C199.201 73.7505 200.297 74.4886 201.174 75.5054C202.082 76.5223 202.302 77.5227 201.832 78.5067C198.042 85.1982 195.755 90.9384 194.972 95.7274C194.221 100.484 194.299 103.305 195.207 104.19C196.272 104.879 197.932 103.764 200.187 100.844C202.474 97.8923 204.635 94.153 206.671 89.6264C208.707 85.0998 209.913 80.77 210.289 76.6371C210.696 72.5041 209.537 69.5848 206.812 67.8791C206.029 67.3543 205.794 66.5178 206.107 65.3698C206.42 64.2217 207.031 63.0901 207.94 61.9749C208.879 60.8268 209.85 60.0232 210.852 59.564C211.886 59.0719 212.716 59.2523 213.343 60.1052C213.812 60.8268 214.204 61.45 214.517 61.9749C215.05 62.9589 215.676 63.8445 216.396 64.6318C217.148 65.419 218.511 66.3702 220.484 67.4855ZM186.985 85.0014C187.142 84.7062 187.236 84.247 187.267 83.6237C187.33 82.9677 187.267 82.3609 187.079 81.8033C186.923 81.2128 186.641 80.8684 186.234 80.77C185.826 80.6388 185.263 80.934 184.542 81.6557C181.723 84.8374 179.358 88.4783 177.448 92.5785C175.537 96.6787 174.519 99.598 174.394 101.336C175.897 99.9588 177.949 97.5315 180.549 94.0546C183.18 90.5448 185.325 87.5271 186.985 85.0014Z" fill="black"/>
<path d="M261.594 95.8259C262.22 95.7603 262.627 96.0719 262.815 96.7607C263.003 97.4167 263.003 98.1055 262.815 98.8272C262.659 99.516 262.361 99.9096 261.922 100.008C260.576 100.205 259.26 100.254 257.976 100.156C256.692 100.057 255.251 99.7292 253.654 99.1716C253.528 99.434 253.387 99.7292 253.231 100.057C252.542 101.73 251.508 103.715 250.13 106.011C248.783 108.307 247.092 110.094 245.056 111.374C243.646 112.063 241.892 112.145 239.794 111.62C237.726 111.095 235.8 110.176 234.015 108.864C232.23 107.52 231.071 105.994 230.538 104.289C230.006 101.927 230.053 99.3684 230.679 96.6131C231.306 93.825 232.214 91.2337 233.404 88.8392C234.563 86.4447 235.738 84.657 236.928 83.4761C237.335 83.0497 237.789 82.6561 238.29 82.2953C238.51 82.1313 238.729 81.9673 238.948 81.8033C238.697 80.4256 238.556 79.048 238.525 77.6703C238.525 76.2926 238.823 74.9806 239.418 73.7341C240.295 72.3237 242.002 71.6185 244.539 71.6185C247.107 71.5857 249.613 72.3729 252.056 73.9802C254.499 75.5874 255.987 78.0967 256.519 81.5081C256.77 83.837 256.739 86.1167 256.426 88.3471C256.144 90.5448 255.721 92.7917 255.157 95.0878C255.783 95.4486 256.692 95.7274 257.882 95.9243C259.072 96.0883 260.309 96.0555 261.594 95.8259ZM238.29 106.798C240.608 105.355 242.362 103.649 243.552 101.681C244.774 99.7128 245.792 97.5971 246.606 95.3338C244.445 93.8578 242.801 91.9061 241.673 89.4788C241.234 90.0036 240.655 91.3649 239.935 93.5626C239.246 95.7274 238.682 98.0727 238.243 100.598C237.836 103.124 237.852 105.191 238.29 106.798ZM248.016 89.8232C248.454 88.5768 248.689 87.1007 248.72 85.395C248.783 83.6565 248.705 82.0493 248.485 80.5732C248.266 79.0644 247.969 78.0147 247.593 77.4243C245.745 80.278 245.886 84.411 248.016 89.8232Z" fill="black"/>
<path fill-rule="evenodd" clip-rule="evenodd" d="M77.1048 9.3606C93.253 19.7972 98.4439 41.026 88.9337 57.7366L66.1593 97.7542C61.167 106.526 52.8171 111.962 43.7834 113.591C47.1163 106.612 50.6625 99.8023 54.422 93.1608C59.2703 84.5664 64.0152 78.0393 68.6565 73.5797C71.0807 71.4532 73.3423 70.2866 75.4412 70.0798C77.5697 69.8731 78.974 70.4195 79.6539 71.719C80.393 70.3604 80.0974 69.1938 78.767 68.2192C77.4663 67.2446 75.6038 66.6096 73.1797 66.3142C70.7851 66.0189 68.2722 66.2109 65.6411 66.8902C63.01 67.5694 60.7337 68.8837 58.8121 70.833C54.4072 75.6766 49.6032 83.3555 44.4002 93.8696C41.5215 99.72 38.4414 106.425 35.16 113.986C32.3937 113.743 29.6415 113.143 26.976 112.173C27.1375 111.168 27.2991 110.192 27.4606 109.242C27.7563 107.618 27.9928 106.215 28.1702 105.034C28.2588 104.531 28.3327 104.015 28.3919 103.483C28.924 100.323 29.3527 97.0446 29.6779 93.6481C30.0326 90.2222 30.0326 87.0472 29.6779 84.1234C29.3231 81.1699 28.3327 78.7924 26.7068 76.9908C25.1104 75.1597 22.6271 74.2442 19.2569 74.2442C14.3199 74.4509 9.8855 76.3116 5.95363 79.8261C3.81791 81.7352 1.89152 83.8795 0.174471 86.2591C-0.47429 81.6911 0.679368 76.8817 3.75048 72.9866C5.393 70.9033 6.53934 68.4733 7.10248 65.8809L11.5392 45.4565C13.5053 36.4056 18.0095 28.1023 24.5243 21.5189L31.6607 14.3075C43.7293 2.11197 62.6948 0.0474365 77.1048 9.3606ZM20.2325 101.534C19.8928 103.344 19.5109 105.491 19.0868 107.975C18.4047 107.48 17.7355 106.955 17.0809 106.398L6.15088 97.1033C5.3527 96.4246 4.63035 95.6889 3.98493 94.9073C4.31035 94.1611 4.65618 93.4165 5.0224 92.6735C6.94399 88.7455 9.11686 85.4524 11.541 82.7943C13.9652 80.1362 16.345 78.7186 18.6805 78.5414C20.4838 78.5709 21.5776 79.7966 21.9619 82.2184C22.3463 84.6107 22.3167 87.5788 21.8733 91.123C21.4298 94.6375 20.8829 98.1078 20.2325 101.534ZM48.8414 49.0892C54.5209 47.6942 59.8236 46.9431 64.7494 46.8358C64.3765 47.114 63.9856 47.3972 63.5767 47.6856C60.7371 49.8702 57.3826 52.1908 53.5133 54.6474C49.6574 57.081 45.2454 59.1826 40.2773 60.952C31.9008 63.7237 26.1806 64.9575 23.1165 64.6535C20.0524 64.3494 19.4139 63.1579 21.2009 61.079C22.988 59.0002 26.9722 56.655 33.1536 54.0435C37.946 52.1126 43.1753 50.4612 48.8414 49.0892ZM37.9658 42.2054C39.9774 42.6152 41.7679 42.6078 43.3372 42.1832C41.1641 42.0493 39.4715 41.3766 38.2594 40.1651C37.0473 38.9535 36.5907 37.605 36.8897 36.1197C37.6634 33.3104 39.7489 30.7729 43.1462 28.5074C46.5569 26.2188 50.5397 24.3634 55.0945 22.941C59.6493 21.5187 64.0319 20.6728 68.2422 20.4032C72.4525 20.1337 75.762 20.6083 78.1708 21.8268C80.1702 23.0269 81.0365 24.624 80.7699 26.6184C80.5392 28.6025 79.6968 30.6829 78.2428 32.8595C76.8023 35.013 75.2849 36.9389 73.6906 38.637C72.1323 40.325 71.032 41.4613 70.3897 42.0459C63.812 41.6416 57.4354 41.8425 51.2601 42.6485C45.1207 43.4443 39.6614 44.7194 34.8822 46.4739C27.0684 49.4127 21.5871 52.3923 18.4385 55.4126C16.4486 57.2226 15.203 58.9661 14.7019 60.6429C14.1873 62.3428 14.3068 63.8825 15.0604 65.2621C16.644 68.0956 20.0637 69.9206 25.3195 70.7371C30.5753 71.5536 36.7934 70.8026 43.974 68.4843C50.754 66.0297 57.002 62.9196 62.7182 59.154C68.4478 55.3654 73.1159 51.7235 76.7226 48.2281C77.8471 48.1021 79.2688 48.1606 80.9877 48.4037C82.7291 48.6596 84.5112 49.0768 86.3341 49.6551C86.1119 48.5474 85.5928 47.4852 84.7769 46.4687C83.9744 45.4291 82.7651 44.5717 81.149 43.8966C83.3895 41.2481 85.0722 38.6039 86.197 35.964C87.3578 33.3138 87.5672 30.6736 86.8251 28.0435C86.119 25.4032 84.1083 22.7863 80.7931 20.193C76.8205 17.2866 72.2674 15.6286 67.1338 15.219C62.0001 14.8093 56.8657 15.273 51.7304 16.61C46.5951 17.947 42.041 19.8297 38.0682 22.258C34.1088 24.6633 31.2969 27.2623 29.6325 30.0549C28.5247 32.1527 28.2894 34.0422 28.9264 35.7234C29.5995 37.3945 30.7804 38.7875 32.4692 39.9027C34.158 41.0178 35.9902 41.7854 37.9658 42.2054Z" fill="#FD5956"/>
</svg>
